<?xml version="1.0" encoding="UTF-8"?><svg id="Layer_2" xmlns="http://www.w3.org/2000/svg" viewBox="0 0 355.82 636.74"><defs><style>.cls-1{stroke-linejoin:round;}.cls-1,.cls-2{stroke-linecap:round;}.cls-1,.cls-2,.cls-3{fill:none;stroke:#000;stroke-width:2px;}.cls-2,.cls-3{stroke-miterlimit:10;}</style></defs><g id="Layer_10"><g><g><path class="cls-2" d="m343.8,597.29c-39.41,16.01-108.72,19.5-176.24-41.18-74.46-66.91-81.65-71.42-100.47-75.77-21.11-4.88-29.59,5.65-26.35,6.24,5.54,1,14.37-2.25,20.96-7.2"/><path class="cls-3" d="m252.5,602.75c-9.54-1.98-13.67-11.77-17-17.18s-8.53-16.61-14.39-24.98c-5.56-7.94-21.64-18.3-20.49-20.26,1.96-3.34,24.18,7.02,30.51,17.38s7.94,24.75,5.95,30.14"/><path class="cls-1" d="m284.35,607.31c-7.12,0-57.62,34.39-65.59,27.52,6.87-3.07,9.28-4.6,13.32-8.65s9.61-10.48,19.66-10.48c5.76,0,7.41,2.3,11.01,2.02"/><path class="cls-1" d="m190.86,574.57c-26.28-15.35-43.82-14.53-53.75-14.4-9.93.12-23.91-1.23-25.62,3.43s3.95,9.33,6.5,7.62c8.21-5.54,24.67-12.08,30.8-10.85"/><path class="cls-1" d="m157.68,547.25c-11.27-10.09-20.68-53.08-16.76-55.37s9.86,12.04,9.35,17.37-2.98,16.09-2.44,20.66"/><path class="cls-1" d="m101.54,498.67c-6.54-5.28-9.32-25.95-11.94-33.26-2.45-6.81-7.88-15.32-7.38-15.32,4-1.27,14.79,9.47,14.63,15.29s-1.59,15.63-1.92,20.28"/><path class="cls-1" d="m120.91,514.78c-9.11-7.93-41.9-5.66-50.09-7.64-8.19-1.98-18.87-9.13-15.51-10.08s25.25,2.36,33.86,7.07c6.46,3.53,11.7,4.92,15.92,5.51"/><path class="cls-1" d="m63.78,479.69c-6.52-5.19-19-26.89-19.83-34.16-1.22-10.69,12.83,4.68,14.46,12.93,1.63,8.25,3.13,19.6,5.37,21.23"/></g><g><path class="cls-1" d="m73.58,338.69c11.19-.22,15.92,7.9,13.6,17.65-2.32,9.74-11.21,12.22-18.72,10.95-7.51-1.27-12.76-12.57-9.59-19.26,3.17-6.69,9.27-9.24,14.71-9.34Z"/><path class="cls-1" d="m61.11,343.75c-9.49-7.99-33.45-30.13-35.81-43.22-2.36-13.09,2.44-20.19,6.85-20.98s14.04,7.95,17.81,6.97,2.3-14.24,11.46-14.82,17.74,10.78,17.81,17.91-4.02,44.32-5.65,49.08"/><path class="cls-1" d="m73.58,338.69c1.75-9.86,14.74-34.92,22.46-41.78,7.73-6.86,15.45-1.88,16.68,1.52,1.51,4.16-.45,17.38.96,20.51,1.77,3.93,10.01,2.45,10.09,10.47.06,5.73-6.35,16.2-14.2,18.98s-18.66,4.73-21.28,4.75"/><path class="cls-1" d="m88.28,353.14c6.17-.35,33.04-6.1,45.23,1.73,12.19,7.83,9.42,11.64,2.7,20.02s-14.75,8.31-22.71,13.05c-3.19,1.9-.67,18.2-8.5,19.45s-19.08-11.6-22.54-19.33-7.16-18.14-7.6-20.64"/><path class="cls-1" d="m74.87,367.41c4.12,14.44,3.27,52.72-6.34,59.8-6.86,5.06-16.43,8.42-22.22-5-3.65-8.46.45-14.36-1.56-17.95s-15.69-4.46-18.2-14.19c-2.51-9.71,5.54-16.49,10.38-18.27s20.31-8.67,23.97-9.97"/><path class="cls-1" d="m60.9,361.84c-5.96,1.07-34.87,18.61-48.1,12.64C-.43,368.51-.01,360.69,2.16,355.89s14.58-6.27,16.08-11.71-5.92-14.58,1.89-20.09,13.44-2.12,17.34.98,22.06,16.45,23.64,18.68"/><path class="cls-1" d="m66.55,339.72c-2.68-7.01-5.88-20.28-7.02-24.36"/><path class="cls-1" d="m85.41,343.73c1.65-3.34,11.53-11.85,13.84-13.69"/><path class="cls-1" d="m84.86,361.59c5.27,2.29,13.59,7.9,15.08,11.68"/><path class="cls-1" d="m68.46,367.28c-1.4,5.72-5.71,14.31-8.89,16.91"/><path class="cls-1" d="m57.94,352.05c-5.65,1.22-18.33-3.31-21.29-5.13"/></g><g><path class="cls-1" d="m43.02,263.14c10.77-8.08,22.01-17.88,28.68-28.25s27.06-80.3,38.98-96.82c7.87-10.91,37.85-55.85,52.56-60.79,13.12-4.41,21.46-3.85,20.66,3.51-6.26,1.03-13.21-1.38-13.98-5.41-.51-2.67,2.88-17.58,7.06-14.35,2.25,1.74-5.51,13.19-7.06,14.35"/><path class="cls-1" d="m137.03,101.97c4.68-6.49,10.61-23.62,4.05-24.82-6.56-1.2-6.13,22.85-4.05,24.82,4.72,1.01,20.1,2.08,21.52-4.31,1.42-6.39-18.31,1.8-21.52,4.31"/><path class="cls-1" d="m112,136.23c4.68-6.49,4.01-33.05-.14-30.68-5.79,3.3-1.94,28.71.14,30.68,4.72,1.01,25.37-4.65,22.29-10.06-5.09-8.93-19.08,7.55-22.29,10.06"/><path class="cls-1" d="m143.56,153.52c4.68-6.49,20.21-20.04,15.94-22.17-7.3-3.65-18.02,20.2-15.94,22.17,3.2,3.19,19.85,12.06,21.96,6.44,3.6-9.62-15.53-6.16-21.96-6.44"/><path class="cls-1" d="m107.18,178.72c4.68-6.49,17.83-26.04,13.56-28.18-7.3-3.65-15.64,26.21-13.56,28.18,3.2,3.19,21.05,7.3,25.3,2.65,6.92-7.59-18.88-2.37-25.3-2.65"/><path class="cls-1" d="m78.77,218.15c10.3-29.01,45.81-55.58,58.58-61.37,11.62-5.27,46.88-23.42,51.45-30.82,4.58-7.4,1.3-9.74-.38-9.95s-9.32,13.33-7.84,17.22c3.63,3.08,12.85,7.16,14.37,5.56s.72-6.97-2.98-7.34-9.5,1.94-11.39,1.78"/><path class="cls-1" d="m95.14,172.51c3.87-10.57.14-32.83-5.77-29.98-8.37,4.04,7.89,24.23,5.77,29.98"/><path class="cls-1" d="m77.7,221.03c3.97-9.72,25.51-21.41,31.3-17.25s-4.18,11.28-10.15,11.78-19.24.53-21.15,5.48"/><path class="cls-1" d="m67.52,240.63c5.38-6.99-.33-30.65,1.13-36.69,1.52-6.29,5.29-11.55,7.45-9.76,5.33,4.42-6.78,22.99-6.52,28.16"/></g><g><path class="cls-1" d="m200.52,75.79c17.57-9.18,42.5-8.51,60.22-6.87,19.56,1.81,77.41-2.66,94.08-13.44-28.41-5.8-36.5-5.29-47.88-2.7-11.38,2.59-24.81,11.48-27.32,16.38,7.73,9.41,31.74,15.27,43.77,10.49,12.03-4.79,26.14-20.83,31.44-24.17"/><path class="cls-1" d="m231.03,68.26c16.12-1.82,30-14.73,38.25-22.53,8.25-7.8,22.43-37.5,44.01-44.73-8.75,11.11-17.73,33.03-23.58,40.42-4.53,5.73-20.14,8.49-24.54,7.88-3.77-10.99-3.37-28.39,11.8-37.56,15.17-9.17,29.51-9.84,36.32-10.75"/><path class="cls-1" d="m217.6,70.01c7.2-1.15,22.23,1.93,30.63,9.96s38.3,45.09,50.27,44.77c-10.96,3.29-23.7,4.23-31.59-7.59s-11.93-25.2-10.48-28.43c8.93-2.16,16.24-.33,19.91,3.55,5.56,5.88,14.96,28.62,22.17,32.48"/></g></g></g></svg>