<?xml version="1.0" encoding="UTF-8"?><svg id="Layer_2" xmlns="http://www.w3.org/2000/svg" viewBox="0 0 339.78 616.94"><defs><style>.cls-1{fill:none;stroke:#000;stroke-linecap:round;stroke-linejoin:round;stroke-width:2px;}</style></defs><g id="Layer_7"><g><g><path class="cls-1" d="m1,565.17c9.34-5.99,22.05-14.31,34.99-14.07,12.94.24,97.75,12.15,132.49,4,34.74-8.15,88.89-25.88,97.52-52.47-13.66,8.39-28.27,19.89-40.49,23s-53.5,6.13-54.19,28.8c21.18,7.38,27.03,8.62,44.36,5.58,15.19-2.66,41.1-18.13,47.38-36.69,2.59-7.65,3.67-14.18,2.95-20.69"/><path class="cls-1" d="m34.96,551.1c10.53,0,29.48-21.48,32.64-29.09s-3.15-14.27-8.91,2.44c-2.43,7.05-4.23,14.21-4.95,15.25"/><path class="cls-1" d="m50.87,552.34c12.73,1.26,28.1,29.19,47.46,36.16,19.36,6.97,45.12,24.01,67.39,16.27-10.17-8.18-60.76-17.32-65.02-15.38,3.29,12.2,15.7,25.39,30.56,26.42,19.35,1.33,29.43-7.16,34.47-11.04"/><path class="cls-1" d="m70.38,554.24c12.97,1.16,58.16-17.15,71.72-38.56,8.27-13.05,6.05-25.35,6.05-25.35-3.76,7.97-33.27,43.57-37,50.48,13.85-.4,35.61-8.8,40.72-20.87s-.32-24.34-3.72-29.61"/><path class="cls-1" d="m129.01,557.91c16.47,0,28.15,25.45,43.65,27.19,15.5,1.74,21.71-5.27,4.28-8.28-10.31-1.78-18.19-3.71-22.73-3.1"/></g><g><path class="cls-1" d="m165.72,534.2c6.79-24.89,58.57-57.26,87.33-76.25,33.49-22.11,54.65-66.43,58.41-81.36,3.59-14.27-2.01-46.3-12.57.19-3.3,14.51-1.32,30.92-1.32,30.92,6.55-.74,14.43-4.75,18.69-8.11,7.68-6.07,12.88-18.98-4.71-6.62-4.28,3.01-13.98,14.73-13.98,14.73"/><path class="cls-1" d="m179.9,512.62c.23-3.2,2.19-15.9-4.1-14.8-4.71.83,4.1,14.8,4.1,14.8,4.74,2.24,8.8,1.48,12.56,1.7,4.04.23,3.5-5.34-2.73-4.96-1.82.11-9.82,3.26-9.82,3.26"/><path class="cls-1" d="m197.77,496.57c2.72-3.51,12.44-30.23.2-27.98-11.3,2.07-.2,27.98-.2,27.98,4.74,2.24,17.51,10.33,23.79,7.2,11.02-5.49-.42-10.93-6.65-10.57-5.24.3-17.29,1.95-17.14,3.37"/><path class="cls-1" d="m223.22,477.33c2.72-3.51,10.04-27.5,1.09-26.4-11.4,1.4-1.09,26.4-1.09,26.4,4.74,2.24,12.03,7.12,18.93,8.36,8.08,1.45,1.84-7.82-2.97-9.24s-16.12-.54-15.96.88"/><path class="cls-1" d="m249.49,460.3c2.72-3.51,11.03-26.05,3.14-25.66-10.77.53-5.05,26.13-3.14,25.66,4.74,2.24,11.72,5.5,18.63,6.74,8.08,1.45,5.01-3.11,1.24-6.43-5.37-4.72-20.02-1.73-19.87-.31"/><path class="cls-1" d="m276.82,436.84c2.72-3.51,8.39-20.53.5-20.14-10.77.53-1.13,15.95-.5,20.14,4.74,2.24,13,5.04,19.65,2.8,8.95-3.02,5.07-5.06.45-7.02-5.83-2.47-20.25,2.8-20.1,4.22"/></g><g><path class="cls-1" d="m265.5,298.67c-.6-8.73,5.56-12.75,13.26-11.31s9.98,8.28,9.28,14.2c-.7,5.92-9.32,10.45-14.67,8.24s-7.58-6.89-7.87-11.13Z"/><path class="cls-1" d="m269.95,308.21c-5.88,7.73-22.24,27.3-32.38,29.66s-15.87-1.12-16.66-4.54,5.67-11.28,4.75-14.19-11.21-1.24-12.03-8.38,7.73-14.28,13.3-14.61c5.57-.33,34.78,1.42,38.57,2.51"/><path class="cls-1" d="m265.5,298.67c-7.77-.99-27.86-10.16-33.52-15.93-5.66-5.77-2.07-12,.54-13.09,3.19-1.34,13.59-.32,15.99-1.55,3-1.54,1.53-7.92,7.79-8.29,4.47-.27,12.9,4.33,15.38,10.36s4.42,14.4,4.53,16.44"/><path class="cls-1" d="m276.22,286.62c-.51-4.81-6.05-25.58-.41-35.41,5.64-9.83,8.73-7.81,15.54-2.88s7.07,11.2,11.08,17.24c1.61,2.42,14.24-.18,15.53,5.88,1.29,6.06-8.32,15.36-14.23,18.36-5.91,3-13.9,6.3-15.84,6.74"/><path class="cls-1" d="m287.9,296.55c11.12-3.78,41.06-4.6,46.97,2.63,4.22,5.16,7.21,12.51-3.04,17.56-6.47,3.18-11.24.2-13.96,1.92s-2.88,12.43-10.38,14.77c-7.49,2.34-13.1-3.69-14.68-7.4s-7.56-15.53-8.72-18.35"/><path class="cls-1" d="m284.09,307.68c1.07,4.62,15.9,26.53,11.74,37.09s-10.28,10.55-14.11,9.03-5.47-11.15-9.77-12.11-11.16,5.19-15.77-.7c-4.61-5.89-2.18-10.42.09-13.59s12-17.88,13.68-19.2"/><path class="cls-1" d="m266.58,304.12c-5.38,2.37-15.62,5.38-18.76,6.43"/><path class="cls-1" d="m268.99,289.23c-2.67-1.16-9.71-8.55-11.23-10.28"/><path class="cls-1" d="m282.96,288.96c1.59-4.21,5.64-10.92,8.54-12.24"/><path class="cls-1" d="m288.05,301.56c4.53.87,11.4,3.9,13.56,6.29"/><path class="cls-1" d="m276.55,310.37c1.17,4.37-1.87,14.45-3.18,16.84"/></g><g><path class="cls-1" d="m265.19,241.6c1.03-28.86-12.59-122.3-81.43-172.27C114.92,19.35,59.78,25.92,56.52,27.01s-22.53,11.21-30.03,3.91,10.11-10.05,13.26-9.98c5.48.13,13.95,4.43,16.76,6.07-5.07-4.6-18.14-16.43-18.64-21.97-.71-7.88,10.3-2.68,12.94,2.65s4.91,17.33,5.7,19.33"/><path class="cls-1" d="m89.41,27.93c-9.35-1.19-24.91-19.28-19.04-23.37s18.48,21.87,19.04,23.37c-2.49,6.11-13.13,25.46-21.34,18.39s14.63-16.47,21.34-18.39"/><path class="cls-1" d="m136.01,41.79c-8.67-2.49-24.89-22.11-15.9-26.73,6.37-3.27,15.34,25.23,15.9,26.73-2.49,6.11-23.91,17.25-30.27,12.35-8.58-6.61,19.25-14.75,30.27-12.35"/><path class="cls-1" d="m177.93,65.13c-5.59-7.08-17.53-26-7.43-26.42,6-.25,10.13,21.5,7.43,26.42-6.17,3.14-29.28,16.97-32.03,6.68-2.79-10.46,21.01-9.08,32.03-6.68"/><path class="cls-1" d="m218.06,102.76c-5.59-7.08-.72-31.48,6.99-24.96,5.93,5.01-4.3,20.05-6.99,24.96-8.87-1.62-36.51-2.43-31.83-8.78,7.78-10.57,22.6,2.36,31.83,8.78"/><path class="cls-1" d="m256.16,180.6c-.22-4.69,9.13-28.01,16.85-21.49,5.93,5.01-14.16,16.58-16.85,21.49-8.87-1.62-27.54-7.16-23.16-13.72,4.65-6.97,15.9,3.4,23.16,13.72"/><path class="cls-1" d="m246.63,152.85c-6.73-16.92-45.16-39.85-60.58-41.77-19.21-2.4-39.46,3.63-48.27,13.72-8.82,10.09-16.44,22-20.92,16.09-5.25-6.93,14.62-11.13,21.23-16.45"/><path class="cls-1" d="m157.7,113.34c-5.16-2.72-26.27-4.4-21.86-11.98s20.19,9.94,21.86,11.98c.85,5.04,4.8,13.12-.94,12.38s-.12-10,.94-12.38"/><path class="cls-1" d="m187.55,111.31c-5.16-2.72-26.55-15.62-19.24-19.84,7.6-4.39,17.58,17.79,19.24,19.84.85,5.04-1.69,17.67-7.43,16.93s1.62-16.64,7.43-16.93"/></g></g></g></svg>