<?xml version="1.0" encoding="UTF-8"?><svg id="Layer_2" xmlns="http://www.w3.org/2000/svg" viewBox="0 0 305.73 195.86"><defs><style>.cls-1{stroke-linejoin:round;}.cls-1,.cls-2{stroke-linecap:round;}.cls-1,.cls-2,.cls-3{fill:none;stroke:#000;stroke-width:2px;}.cls-2,.cls-3{stroke-miterlimit:10;}</style></defs><g id="Layer_2-2"><g><path class="cls-2" d="m304.73,156.41c-39.41,16.01-108.72,19.5-176.24-41.18C54.02,48.32,46.84,43.82,28.02,39.47,6.91,34.59-1.57,45.12,1.67,45.71c5.54,1,14.37-2.25,20.96-7.2"/><path class="cls-3" d="m213.43,161.87c-9.54-1.98-13.67-11.77-17-17.18s-8.53-16.61-14.39-24.98c-5.56-7.94-21.64-18.3-20.49-20.26,1.96-3.34,24.18,7.02,30.51,17.38s7.94,24.75,5.95,30.14"/><path class="cls-1" d="m245.28,166.43c-7.12,0-57.62,34.39-65.59,27.52,6.87-3.07,9.28-4.6,13.32-8.65s9.61-10.48,19.66-10.48c5.76,0,7.41,2.3,11.01,2.02"/><path class="cls-1" d="m151.78,133.69c-26.28-15.35-43.82-14.53-53.75-14.4-9.93.12-23.91-1.23-25.62,3.43s3.95,9.33,6.5,7.62c8.21-5.54,24.67-12.08,30.8-10.85"/><path class="cls-1" d="m118.6,106.37c-11.27-10.09-20.68-53.08-16.76-55.37s9.86,12.04,9.35,17.37-2.98,16.09-2.44,20.66"/><path class="cls-1" d="m62.47,57.79c-6.54-5.28-9.32-25.95-11.94-33.26-2.45-6.81-7.88-15.32-7.38-15.32,4-1.27,14.79,9.47,14.63,15.29s-1.59,15.63-1.92,20.28"/><path class="cls-1" d="m81.84,73.9c-9.11-7.93-41.9-5.66-50.09-7.64-8.19-1.98-18.87-9.13-15.51-10.08s25.25,2.36,33.86,7.07c6.46,3.53,11.7,4.92,15.92,5.51"/><path class="cls-1" d="m24.7,38.81C18.19,33.62,5.7,11.92,4.87,4.65c-1.22-10.69,12.83,4.68,14.46,12.93,1.63,8.25,3.13,19.6,5.37,21.23"/></g></g></svg>