<?xml version="1.0" encoding="UTF-8"?><svg id="Layer_2" xmlns="http://www.w3.org/2000/svg" viewBox="0 0 142.96 161.98" class="svg-outline"><defs><style>.cls-1{stroke:#000;stroke-linecap:round;stroke-linejoin:round;stroke-width:2px;}</style></defs><g id="Layer_12"><g><path class="cls-1" d="m73.58,68.01c11.19-.22,15.92,7.9,13.6,17.65s-11.21,12.22-18.72,10.95c-7.51-1.27-12.76-12.57-9.59-19.26s9.27-9.24,14.71-9.34Z"/><path class="cls-1" d="m61.11,73.08c-9.49-7.99-33.45-30.13-35.81-43.22-2.36-13.09,2.44-20.19,6.85-20.98s14.04,7.95,17.81,6.97,2.3-14.24,11.46-14.82,17.74,10.78,17.81,17.91-4.02,44.32-5.65,49.08"/><path class="cls-1" d="m73.58,68.01c1.75-9.86,14.74-34.92,22.46-41.78,7.73-6.86,15.45-1.88,16.68,1.52,1.51,4.16-.45,17.38.96,20.51,1.77,3.93,10.01,2.45,10.09,10.47.06,5.73-6.35,16.2-14.2,18.98s-18.66,4.73-21.28,4.75"/><path class="cls-1" d="m88.28,82.46c6.17-.35,33.04-6.1,45.23,1.73,12.19,7.83,9.42,11.64,2.7,20.02s-14.75,8.31-22.71,13.05c-3.19,1.9-.67,18.2-8.5,19.45s-19.08-11.6-22.54-19.33-7.16-18.14-7.6-20.64"/><path class="cls-1" d="m74.87,96.74c4.12,14.44,3.27,52.72-6.34,59.8-6.86,5.06-16.43,8.42-22.22-5-3.65-8.46.45-14.36-1.56-17.95s-15.69-4.46-18.2-14.19c-2.51-9.71,5.54-16.49,10.38-18.27s20.31-8.67,23.97-9.97"/><path class="cls-1" d="m60.9,91.16c-5.96,1.07-34.87,18.61-48.1,12.64C-.43,97.83-.01,90.01,2.16,85.21s14.58-6.27,16.08-11.71-5.92-14.58,1.89-20.09,13.44-2.12,17.34.98,22.06,16.45,23.64,18.68"/><path class="cls-1" d="m66.55,69.04c-2.68-7.01-5.88-20.28-7.02-24.36"/><path class="cls-1" d="m85.41,73.05c1.65-3.34,11.53-11.85,13.84-13.69"/><path class="cls-1" d="m84.86,90.91c5.27,2.29,13.59,7.9,15.08,11.68"/><path class="cls-1" d="m68.46,96.61c-1.4,5.72-5.71,14.31-8.89,16.91"/><path class="cls-1" d="m57.94,81.37c-5.65,1.22-18.33-3.31-21.29-5.13"/></g></g></svg>