<?xml version="1.0" encoding="UTF-8"?><svg id="Layer_2" xmlns="http://www.w3.org/2000/svg" viewBox="0 0 154.66 204.57"><defs><style>.cls-1{fill:none;stroke:#000;stroke-linecap:round;stroke-linejoin:round;stroke-width:2px;}</style></defs><g id="Layer_9"><g><path class="cls-1" d="m1,203.57c10.77-8.08,22.01-17.88,28.68-28.25s27.06-80.3,38.98-96.82c7.87-10.91,37.85-55.85,52.56-60.79,13.12-4.41,21.46-3.85,20.66,3.51-6.26,1.03-13.21-1.38-13.98-5.41-.51-2.67,2.88-17.58,7.06-14.35,2.25,1.74-5.51,13.19-7.06,14.35"/><path class="cls-1" d="m95.01,42.4c4.68-6.49,10.61-23.62,4.05-24.82-6.56-1.2-6.13,22.85-4.05,24.82,4.72,1.01,20.1,2.08,21.52-4.31,1.42-6.39-18.31,1.8-21.52,4.31"/><path class="cls-1" d="m69.98,76.66c4.68-6.49,4.01-33.05-.14-30.68-5.79,3.3-1.94,28.71.14,30.68,4.72,1.01,25.37-4.65,22.29-10.06-5.09-8.93-19.08,7.55-22.29,10.06"/><path class="cls-1" d="m101.54,93.96c4.68-6.49,20.21-20.04,15.94-22.17-7.3-3.65-18.02,20.2-15.94,22.17,3.2,3.19,19.85,12.06,21.96,6.44,3.6-9.62-15.53-6.16-21.96-6.44"/><path class="cls-1" d="m65.16,119.15c4.68-6.49,17.83-26.04,13.56-28.18-7.3-3.65-15.64,26.21-13.56,28.18,3.2,3.19,21.05,7.3,25.3,2.65,6.92-7.59-18.88-2.37-25.3-2.65"/><path class="cls-1" d="m36.75,158.59c10.3-29.01,45.81-55.58,58.58-61.37,11.62-5.27,46.88-23.42,51.45-30.82,4.58-7.4,1.3-9.74-.38-9.95s-9.32,13.33-7.84,17.22c3.63,3.08,12.85,7.16,14.37,5.56s.72-6.97-2.98-7.34-9.5,1.94-11.39,1.78"/><path class="cls-1" d="m53.12,112.94c3.87-10.57.14-32.83-5.77-29.98-8.37,4.04,7.89,24.23,5.77,29.98"/><path class="cls-1" d="m35.68,161.46c3.97-9.72,25.51-21.41,31.3-17.25s-4.18,11.28-10.15,11.78-19.24.53-21.15,5.48"/><path class="cls-1" d="m25.5,181.07c5.38-6.99-.33-30.65,1.13-36.69,1.52-6.29,5.29-11.55,7.45-9.76,5.33,4.42-6.78,22.99-6.52,28.16"/></g></g></svg>