<?xml version="1.0" encoding="UTF-8"?><svg id="Layer_2" xmlns="http://www.w3.org/2000/svg" viewBox="0 0 127.2 112.3"><defs><style>.cls-1{fill:none;stroke:#000;stroke-linecap:round;stroke-linejoin:round;stroke-width:2px;}</style></defs><g id="Layer_8"><g><path class="cls-1" d="m52.92,55.44c-.6-8.73,5.56-12.75,13.26-11.31s9.98,8.28,9.28,14.2c-.7,5.92-9.32,10.45-14.67,8.24s-7.58-6.89-7.87-11.13Z"/><path class="cls-1" d="m57.37,64.99c-5.88,7.73-22.24,27.3-32.38,29.66s-15.87-1.12-16.66-4.54,5.67-11.28,4.75-14.19-11.21-1.24-12.03-8.38,7.73-14.28,13.3-14.61c5.57-.33,34.78,1.42,38.57,2.51"/><path class="cls-1" d="m52.92,55.44c-7.77-.99-27.86-10.16-33.52-15.93-5.66-5.77-2.07-12,.54-13.09,3.19-1.34,13.59-.32,15.99-1.55,3-1.54,1.53-7.92,7.79-8.29,4.47-.27,12.9,4.33,15.38,10.36s4.42,14.4,4.53,16.44"/><path class="cls-1" d="m63.64,43.39c-.51-4.81-6.05-25.58-.41-35.41,5.64-9.83,8.73-7.81,15.54-2.88s7.07,11.2,11.08,17.24c1.61,2.42,14.24-.18,15.53,5.88,1.29,6.06-8.32,15.36-14.23,18.36-5.91,3-13.9,6.3-15.84,6.74"/><path class="cls-1" d="m75.32,53.32c11.12-3.78,41.06-4.6,46.97,2.63,4.22,5.16,7.21,12.51-3.04,17.56-6.47,3.18-11.24.2-13.96,1.92s-2.88,12.43-10.38,14.77c-7.49,2.34-13.1-3.69-14.68-7.4s-7.56-15.53-8.72-18.35"/><path class="cls-1" d="m71.51,64.45c1.07,4.62,15.9,26.53,11.74,37.09s-10.28,10.55-14.11,9.03-5.47-11.15-9.77-12.11-11.16,5.19-15.77-.7c-4.61-5.89-2.18-10.42.09-13.59s12-17.88,13.68-19.2"/><path class="cls-1" d="m54,60.9c-5.38,2.37-15.62,5.38-18.76,6.43"/><path class="cls-1" d="m56.41,46c-2.67-1.16-9.71-8.55-11.23-10.28"/><path class="cls-1" d="m70.38,45.74c1.59-4.21,5.64-10.92,8.54-12.24"/><path class="cls-1" d="m75.47,58.34c4.53.87,11.4,3.9,13.56,6.29"/><path class="cls-1" d="m63.97,67.14c1.17,4.37-1.87,14.45-3.18,16.84"/></g></g></svg>