<?xml version="1.0" encoding="UTF-8"?><svg id="Layer_2" xmlns="http://www.w3.org/2000/svg" viewBox="0 0 156.3 127.91"><defs><style>.cls-1{fill:none;stroke:#000;stroke-linecap:round;stroke-linejoin:round;stroke-width:2px;}</style></defs><g id="Layer_10"><g><path class="cls-1" d="m1,75.79c17.57-9.18,42.5-8.51,60.22-6.87,19.56,1.81,77.41-2.66,94.08-13.44-28.41-5.8-36.5-5.29-47.88-2.7-11.38,2.59-24.81,11.48-27.32,16.38,7.73,9.41,31.74,15.27,43.77,10.49,12.03-4.79,26.14-20.83,31.44-24.17"/><path class="cls-1" d="m31.51,68.26c16.12-1.82,30-14.73,38.25-22.53,8.25-7.8,22.43-37.5,44.01-44.73-8.75,11.11-17.73,33.03-23.58,40.42-4.53,5.73-20.14,8.49-24.54,7.88-3.77-10.99-3.37-28.39,11.8-37.56C92.62,2.58,106.96,1.91,113.77,1"/><path class="cls-1" d="m18.09,70.01c7.2-1.15,22.23,1.93,30.63,9.96s38.3,45.09,50.27,44.77c-10.96,3.29-23.7,4.23-31.59-7.59s-11.93-25.2-10.48-28.43c8.93-2.16,16.24-.33,19.91,3.55,5.56,5.88,14.96,28.62,22.17,32.48"/></g></g></svg>